 <svg width="18" height="18" viewBox="0 0 20 20" fill="none" xmlns="http://www.w3.org/2000/svg">
        <path opacity="0.5" d="M9.81002 3.22656C10.7869 3.22656 11.7196 3.39046 12.5732 3.6882C12.2149 4.2473 12.0077 4.91144 12.0077 5.62399C12.0077 7.61008 13.6177 9.22012 15.6038 9.22012C16.1581 9.22012 16.6831 9.09472 17.152 8.87074C17.185 9.11561 17.2021 9.36592 17.2021 9.61969C17.2021 13.1505 13.8925 16.0128 9.81002 16.0128C9.1117 16.0128 8.436 15.9291 7.7956 15.7726C6.95692 16.5193 5.55687 17.1386 3.59678 17.6299C3.51221 17.6511 3.42275 17.6393 3.34663 17.5968C3.18151 17.5046 3.12238 17.296 3.21455 17.1309L3.35704 16.8718C3.9865 15.7105 4.36351 14.7713 4.48805 14.0543C3.20589 12.9061 2.41797 11.3425 2.41797 9.61969C2.41797 6.08886 5.7275 3.22656 9.81002 3.22656Z" fill="#948AC5"></path>
        <path opacity="0.2" d="M18.0014 5.62399C18.0014 4.29993 16.928 3.22656 15.604 3.22656C14.2799 3.22656 13.2065 4.29993 13.2065 5.62399C13.2065 6.94805 14.2799 8.02141 15.604 8.02141C16.928 8.02141 18.0014 6.94805 18.0014 5.62399Z" fill="#948AC5"></path>
    </svg>