<svg width="18" height="18" viewBox="0 0 18 18" fill="none" xmlns="http://www.w3.org/2000/svg">
    <path fill-rule="evenodd" clip-rule="evenodd" d="M5.42846 4.00011C5.03397 3.60562 4.39438 3.60562 3.99989 4.00011C3.6054 4.3946 3.6054 5.0342 3.99989 5.42868L7.57123 9.00003L3.99992 12.5713C3.60543 12.9658 3.60543 13.6054 3.99992 13.9999C4.39441 14.3944 5.034 14.3944 5.42849 13.9999L8.99981 10.4286L12.5713 14.0001C12.9658 14.3946 13.6054 14.3946 13.9999 14.0001C14.3944 13.6056 14.3944 12.966 13.9999 12.5716L10.4284 9.00003L13.9999 5.42848C14.3944 5.03399 14.3944 4.39439 13.9999 3.9999C13.6054 3.60541 12.9658 3.60542 12.5714 3.99991L8.99981 7.57146L5.42846 4.00011Z" fill="#DE8B03"/>
</svg>
