<svg width="493" height="159" viewBox="0 0 493 159" fill="none" xmlns="http://www.w3.org/2000/svg">
    <path d="M287.799 114.093C286.338 114.093 284.881 114.239 283.45 114.528C282.37 109.142 278.881 104.547 273.983 102.06C269.085 99.5732 263.316 99.4689 258.331 101.776C253.819 89.3485 240.086 82.9318 227.659 87.4436C215.231 91.9554 208.814 105.689 213.326 118.116C202.439 118.46 193.839 127.471 194.002 138.361C194.166 149.253 203.033 158 213.925 158.018H287.799C299.927 158.018 309.761 148.185 309.761 136.056C309.761 123.926 299.927 114.093 287.799 114.093V114.093Z" fill="url(#paint0_linear)"/>
    <path d="M352.66 51.336H367.57C373.14 41.1179 382.659 33.3701 394.084 30.1495C391.785 24.5689 386.297 20.6404 379.889 20.6404C378.287 20.6404 376.744 20.8871 375.294 21.3412C375.301 21.1081 375.311 20.8754 375.311 20.6404C375.311 9.24211 366.069 0 354.67 0C344.838 0 336.62 6.87234 334.541 16.0735C333.306 15.6619 331.989 15.4367 330.617 15.4367C326.394 15.4367 322.666 17.5507 320.431 20.7776C319.184 20.456 317.874 20.2818 316.526 20.2818C307.951 20.2818 301 27.2333 301 35.8085C301 44.3822 307.951 51.3352 316.526 51.3352H341.349" fill="url(#paint1_linear)"/>
    <path d="M145.591 39.5331C137.614 31 126.256 25.6661 113.654 25.6661C92.837 25.6661 75.4309 40.2219 71.0281 59.7082C68.4151 58.8367 65.624 58.3573 62.7191 58.3573C53.7751 58.3573 45.8828 62.8357 41.1491 69.669C38.5069 68.9866 35.736 68.6198 32.8798 68.6198C14.7207 68.6198 0 83.3404 0 101.5C0 119.658 14.7207 134.381 32.8798 134.381H69.1323C69.2087 123.204 78.2875 114.168 89.4804 114.168C91.603 114.168 93.6497 114.494 95.5736 115.097C95.5646 114.789 95.5506 114.48 95.5506 114.168C95.5506 99.0503 107.806 86.7949 122.923 86.7949C135.958 86.7949 146.859 95.9104 149.615 108.112C151.251 107.566 152.998 107.266 154.817 107.266C160.417 107.266 165.361 110.07 168.324 114.35C169.979 113.922 171.714 113.692 173.502 113.692C180.998 113.692 187.556 117.698 191.157 123.684C196.378 117.918 199.559 110.271 199.559 101.881C199.559 83.9298 185.008 69.3806 167.058 69.3806C163.669 69.3806 160.401 69.9002 157.329 70.8629C157.345 70.3706 157.366 69.8772 157.366 69.3806C157.366 62.0405 155.557 55.1234 152.36 49.0493" fill="url(#paint2_linear)"/>
    <path d="M438.591 39.8671C430.614 31.3339 419.256 26 406.654 26C385.837 26 368.431 40.5558 364.028 60.0421C361.415 59.1706 358.624 58.6912 355.719 58.6912C346.775 58.6912 338.883 63.1696 334.149 70.003C331.507 69.3205 328.736 68.9537 325.88 68.9537C307.721 68.9537 293 83.6744 293 101.834C293 119.992 307.721 134.715 325.88 134.715H362.132C362.209 123.538 371.287 114.502 382.48 114.502C384.603 114.502 386.65 114.828 388.574 115.431C388.565 115.123 388.551 114.814 388.551 114.502C388.551 99.3843 400.806 87.1289 415.923 87.1289C428.958 87.1289 439.859 96.2443 442.615 108.446C444.251 107.899 445.998 107.6 447.817 107.6C453.417 107.6 458.361 110.404 461.324 114.684C462.979 114.256 464.714 114.026 466.502 114.026C473.998 114.026 480.556 118.032 484.157 124.018C489.378 118.252 492.559 110.605 492.559 102.215C492.559 84.2637 478.008 69.7145 460.058 69.7145C456.669 69.7145 453.401 70.2341 450.329 71.1968C450.345 70.7046 450.366 70.2111 450.366 69.7145C450.366 62.3745 448.557 55.4573 445.36 49.3832" fill="url(#paint3_linear)"/>
    <path d="M173.503 112.822C171.714 112.822 169.979 113.051 168.325 113.48C165.361 109.2 160.418 106.396 154.818 106.396C152.998 106.396 151.252 106.696 149.616 107.242C146.859 95.0402 135.958 85.9251 122.923 85.9251C107.806 85.9251 95.551 98.1805 95.551 113.298C95.551 113.61 95.5647 113.919 95.574 114.227C93.6501 113.624 91.6035 113.298 89.4808 113.298C78.2419 113.298 69.1304 122.408 69.1304 133.65C69.1304 144.889 78.2423 154 89.4808 154H150.412H161.721H173.503C184.875 154 194.093 144.782 194.093 133.411C194.093 122.04 184.874 112.822 173.503 112.822Z" fill="url(#paint4_linear)"/>
    <path d="M466.503 113.156C464.714 113.156 462.979 113.385 461.325 113.814C458.361 109.534 453.418 106.73 447.818 106.73C445.998 106.73 444.252 107.03 442.616 107.576C439.859 95.3741 428.958 86.2591 415.923 86.2591C400.806 86.2591 388.551 98.5145 388.551 113.632C388.551 113.944 388.565 114.253 388.574 114.561C386.65 113.958 384.603 113.632 382.481 113.632C371.242 113.632 362.13 122.742 362.13 133.984C362.13 145.223 371.242 154.334 382.481 154.334H443.412H454.721H466.503C477.875 154.334 487.093 145.116 487.093 133.745C487.093 122.374 477.874 113.156 466.503 113.156Z" fill="url(#paint5_linear)"/>
    <defs>
        <linearGradient id="paint0_linear" x1="251.881" y1="86" x2="251.881" y2="158.018" gradientUnits="userSpaceOnUse">
            <stop stop-color="#2A224E"/>
            <stop offset="1" stop-color="#2A224E" stop-opacity="0.3"/>
        </linearGradient>
        <linearGradient id="paint1_linear" x1="347.542" y1="0" x2="347.542" y2="51.336" gradientUnits="userSpaceOnUse">
            <stop stop-color="#2A224E"/>
            <stop offset="0.0001" stop-color="#271F47"/>
            <stop offset="1" stop-color="#271F47" stop-opacity="0.37"/>
        </linearGradient>
        <linearGradient id="paint2_linear" x1="99.7793" y1="25.6661" x2="99.7793" y2="134.381" gradientUnits="userSpaceOnUse">
            <stop stop-color="#2A224E"/>
            <stop offset="1" stop-color="#2A224E" stop-opacity="0.3"/>
        </linearGradient>
        <linearGradient id="paint3_linear" x1="392.779" y1="26" x2="392.779" y2="134.715" gradientUnits="userSpaceOnUse">
            <stop stop-color="#2A224E"/>
            <stop offset="1" stop-color="#2A224E" stop-opacity="0.3"/>
        </linearGradient>
        <linearGradient id="paint4_linear" x1="131.612" y1="85.9251" x2="131.612" y2="154" gradientUnits="userSpaceOnUse">
            <stop stop-color="#2A224E"/>
            <stop offset="1" stop-color="#2A224E" stop-opacity="0.3"/>
        </linearGradient>
        <linearGradient id="paint5_linear" x1="424.612" y1="86.2591" x2="424.612" y2="154.334" gradientUnits="userSpaceOnUse">
            <stop stop-color="#2A224E"/>
            <stop offset="1" stop-color="#2A224E" stop-opacity="0.3"/>
        </linearGradient>
    </defs>
</svg>
