<svg width="18" height="18" viewBox="0 0 20 20" fill="none" xmlns="http://www.w3.org/2000/svg">
        <path opacity="0.4" d="M12.8527 3.00098H15.2227C16.2043 3.00098 16.9996 3.80303 16.9996 4.79286V7.18292C16.9996 8.17275 16.2043 8.9748 15.2227 8.9748H12.8527C11.8711 8.9748 11.0758 8.17275 11.0758 7.18292V4.79286C11.0758 3.80303 11.8711 3.00098 12.8527 3.00098Z" fill="#948AC5"></path>
        <path fill-rule="evenodd" clip-rule="evenodd" d="M4.77687 3H7.14692C8.12846 3 8.9238 3.80205 8.9238 4.79188V7.18195C8.9238 8.17177 8.12846 8.97383 7.14692 8.97383H4.77687C3.79534 8.97383 3 8.17177 3 7.18195V4.79188C3 3.80205 3.79534 3 4.77687 3ZM4.77787 11.0262H7.14792C8.12946 11.0262 8.92479 11.8283 8.92479 12.8181V15.2082C8.92479 16.1973 8.12946 17.0001 7.14792 17.0001H4.77787C3.79633 17.0001 3.00099 16.1973 3.00099 15.2082V12.8181C3.00099 11.8283 3.79633 11.0262 4.77787 11.0262ZM15.2227 11.0262H12.8527C11.8711 11.0262 11.0758 11.8283 11.0758 12.8181V15.2082C11.0758 16.1973 11.8711 17.0001 12.8527 17.0001H15.2227C16.2043 17.0001 16.9996 16.1973 16.9996 15.2082V12.8181C16.9996 11.8283 16.2043 11.0262 15.2227 11.0262Z" fill="#948AC5"></path>
    </svg>