<svg width="131" height="16.4815" viewBox="0 0 146 17" fill="none" xmlns="http://www.w3.org/2000/svg">
    <g clip-path="url(#clip0)">
        <path fill-rule="evenodd" clip-rule="evenodd" d="M48.4912 4.50787C47.9433 4.68325 47.4329 4.95954 46.9865 5.3225C46.572 5.6636 46.2337 6.0879 45.9935 6.56796C45.636 7.30668 45.5386 8.14452 45.717 8.94558C45.8954 9.74663 46.3392 10.4639 46.9764 10.9811C47.4289 11.3342 47.9424 11.6011 48.4912 11.7688C49.1025 11.9589 49.7396 12.0531 50.3797 12.0482H58.5159V16.2156H50.3797C49.0529 16.2289 47.7335 16.016 46.4782 15.5861C45.3505 15.2028 44.303 14.6151 43.3881 13.8525C42.5343 13.1308 41.8407 12.2388 41.3515 11.2336C40.8571 10.2107 40.6048 9.08762 40.6143 7.95151C40.6006 6.83005 40.8533 5.72136 41.3515 4.71656C41.8431 3.7407 42.5374 2.88109 43.3881 2.19524C44.3065 1.46342 45.3549 0.911773 46.4782 0.569331C47.742 0.181192 49.0578 -0.0106664 50.3797 0.000457339H58.5159V4.21837H50.3797C49.7388 4.2134 49.1012 4.31114 48.4912 4.50787ZM17.5718 16.2161H0V0.000976562H5.01906V12.0487H14.3233L17.5718 16.2161ZM38.2868 9.1383C38.2868 14.0341 34.9179 16.4821 28.1802 16.4821C26.4882 16.5071 24.7982 16.3527 23.1387 16.0215C21.903 15.7835 20.7232 15.3148 19.6611 14.64C18.792 14.0768 18.0957 13.2841 17.6492 12.3497C17.2008 11.3397 16.9815 10.2431 17.0069 9.13831V0.000976562H21.9997V9.13829C21.9851 9.64999 22.0674 10.1598 22.2423 10.6409C22.421 11.0644 22.7425 11.4117 23.1509 11.6225C23.7384 11.9156 24.3754 12.0964 25.0293 12.1557C26.0753 12.2737 27.1276 12.3264 28.1802 12.3134C28.9914 12.3251 29.8023 12.2683 30.604 12.1436C31.1537 12.0663 31.6817 11.8766 32.1549 11.5862C32.5272 11.3465 32.8187 11.0002 32.9912 10.5925C33.1717 10.1294 33.2582 9.6351 33.2457 9.13831V0.000976562H38.2868L38.2868 9.1383ZM99.4219 0L89.7978 10.8595V16.2151H84.7586V10.8359L78.3257 3.78702L82.1228 0.93918L85.1928 4.50739C85.2883 4.61263 85.4033 4.74275 85.5391 4.89649L85.7011 5.07968C85.9132 5.31193 86.132 5.55766 86.3576 5.81686C86.5116 5.99391 86.6578 6.1631 86.7972 6.32443L86.987 6.54393C87.1823 6.76947 87.3169 6.94117 87.3978 7.05224C87.5593 6.82672 87.7949 6.52037 88.1012 6.13325C88.4076 5.74617 88.8519 5.19407 89.4343 4.48383L93.1204 0H99.4219ZM74.0068 16.2151H81.591L71.5158 8.33817L70.6137 7.6346L77.3327 2.69972L81.012 0H73.741L69.0618 3.95195C68.3167 4.56573 67.7153 5.08637 67.2576 5.51388C66.7952 5.94137 66.4025 6.30157 66.0794 6.59447C66.113 6.17369 66.1366 5.71927 66.1534 5.23451C66.1703 4.74976 66.177 4.2583 66.177 3.75669V0H61.1377V16.2151H66.177V11.5597C66.177 11.1726 66.1702 10.7821 66.1534 10.3849L66.147 10.2347C66.1323 9.8933 66.118 9.55963 66.1063 9.23359C66.3801 9.50964 66.7392 9.84963 67.1835 10.2536C67.629 10.6575 68.2708 11.2231 69.109 11.9501L74.0068 16.2151Z" fill="#944EF5"/>
        <path fill-rule="evenodd" clip-rule="evenodd" d="M108.312 8.84647V0H103.273V8.84648C103.287 9.35122 103.2 9.85372 103.017 10.3242C102.843 10.7355 102.547 11.0833 102.169 11.3207C101.686 11.6097 101.15 11.7986 100.593 11.8761C99.796 12.0013 98.9897 12.0587 98.1829 12.0478H95.8231L92.1304 16.2151H98.1829C104.936 16.214 108.312 13.7578 108.312 8.84647ZM142.752 4.21648L146 0.00195312H110.554V16.2137H125.557V12.0463H115.596V9.84146H125.557V6.15543H115.596V4.21648H131.943V16.2137H136.958V4.21648H142.752Z" fill="#C4C4C4"/>
        <path fill-rule="evenodd" clip-rule="evenodd" d="M108.312 8.84647V0H103.273V8.84648C103.287 9.35122 103.2 9.85372 103.017 10.3242C102.843 10.7355 102.547 11.0833 102.169 11.3207C101.686 11.6097 101.15 11.7986 100.593 11.8761C99.796 12.0013 98.9897 12.0587 98.1829 12.0478H95.8231L92.1304 16.2151H98.1829C104.936 16.214 108.312 13.7578 108.312 8.84647ZM142.752 4.21648L146 0.00195312H110.554V16.2137H125.557V12.0463H115.596V9.84146H125.557V6.15543H115.596V4.21648H131.943V16.2137H136.958V4.21648H142.752Z" fill="white"/>
    </g>
    <defs>
        <clipPath id="clip0">
            <rect width="146" height="16.4815" fill="white"/>
        </clipPath>
    </defs>
</svg>
