 <svg width="19" height="19" viewBox="0 0 21 20" fill="none" xmlns="http://www.w3.org/2000/svg">
        <path fill-rule="evenodd" clip-rule="evenodd" d="M17.4975 7.46273H14.5334C13.154 7.46516 12.0365 8.55469 12.0341 9.89962C12.0322 11.2476 13.1509 12.342 14.5334 12.3438H17.5V12.5579C17.5 14.9093 16.0746 16.2997 13.6623 16.2997H7.33898C4.92612 16.2997 3.50067 14.9093 3.50067 12.5579V7.43664C3.50067 5.08529 4.92612 3.70032 7.33898 3.70032H13.6598C16.0721 3.70032 17.4975 5.08529 17.4975 7.43664V7.46273ZM6.81758 7.45771H10.7654H10.7679H10.7729C11.0684 7.4565 11.3073 7.22172 11.3061 6.93296C11.3048 6.64481 11.0634 6.41185 10.7679 6.41307H6.81758C6.52391 6.41428 6.28561 6.64663 6.28436 6.93357C6.28312 7.22172 6.52204 7.4565 6.81758 7.45771Z" fill="#948AC5"></path>
        <path opacity="0.4" d="M13.3267 10.2076C13.473 10.8734 14.0568 11.3418 14.7232 11.3297H16.9981C17.2754 11.3297 17.5003 11.1 17.5003 10.8162V9.04415C17.4997 8.7609 17.2754 8.53064 16.9981 8.53003H14.6697C13.9116 8.53247 13.2993 9.16171 13.3005 9.93716C13.3005 10.0279 13.3094 10.1187 13.3267 10.2076Z" fill="#948AC5"></path>
        <ellipse cx="14.7002" cy="9.9297" rx="0.699968" ry="0.699967" fill="#948AC5"></ellipse>
    </svg>