<svg width="18" height="19" viewBox="0 0 20 20" fill="none" xmlns="http://www.w3.org/2000/svg"><path d="M10.8636 6.46858C10.8316 6.15909 10.7982 5.83798 10.7161 5.51756C10.4926 4.75101 9.87335 4.27277 9.2094 4.27277C8.83905 4.27141 8.37062 4.49959 8.10503 4.73052L5.90365 6.57447H4.75124C3.90311 6.57447 3.22114 7.2283 3.09236 8.1718C2.98292 9.07772 2.95623 10.7878 3.09236 11.7846C3.21047 12.7813 3.86174 13.4256 4.75124 13.4256H5.90365L8.14774 15.2969C8.37796 15.4971 8.78433 15.7266 9.15802 15.7266C9.18204 15.7273 9.20339 15.7273 9.22475 15.7273C9.90138 15.7273 10.4973 15.2313 10.7208 14.4668C10.8056 14.1416 10.8349 13.8369 10.8636 13.5424L10.8936 13.2507C11.0084 12.3045 11.0084 7.68946 10.8936 6.75006L10.8636 6.46858Z" fill="#948AC5"></path><path fill-rule="evenodd" clip-rule="evenodd" d="M14.6391 4.41308C14.9047 4.22452 15.2697 4.29352 15.4519 4.56339C16.4502 6.03295 17 7.96436 17 9.99961C17 12.0362 16.4502 13.967 15.4519 15.4365C15.3431 15.5971 15.1636 15.6934 14.9721 15.6934C14.8533 15.6934 14.7386 15.6565 14.6398 15.5868C14.3756 15.3976 14.3102 15.0252 14.493 14.7547C15.3565 13.4826 15.8322 11.7937 15.8322 9.99961C15.8322 8.20621 15.3565 6.51734 14.493 5.24522C14.3102 4.97536 14.3756 4.60233 14.6391 4.41308ZM12.6271 6.34626C12.8933 6.15838 13.257 6.22601 13.4405 6.49656C14.0851 7.44621 14.4408 8.69032 14.4408 10C14.4408 11.3097 14.0851 12.5538 13.4405 13.5035C13.3311 13.664 13.1522 13.7603 12.9607 13.7603C12.8419 13.7603 12.7265 13.7235 12.6277 13.6538C12.3635 13.4645 12.2981 13.0915 12.4816 12.8216C12.9921 12.0694 13.273 11.0672 13.273 10C13.273 8.93217 12.9921 7.9306 12.4816 7.1784C12.2981 6.90853 12.3635 6.5355 12.6271 6.34626Z" fill="#948AC5"></path></svg>