<svg width="18" height="18" viewBox="0 0 20 20" fill="none" xmlns="http://www.w3.org/2000/svg"><path d="M3 10C3 13.864 6.136 17 10 17C13.864 17 17 13.864 17 10C17 6.136 13.864 3 10 3C6.136 3 3 6.136 3 10ZM9.125 14.375V14.025C9.125 13.6384 9.4384 13.325 9.825 13.325H10.175C10.5616 13.325 10.875 13.6384 10.875 14.025V14.375C10.875 14.7616 10.5616 15.075 10.175 15.075H9.825C9.4384 15.075 9.125 14.7616 9.125 14.375ZM11.519 10.119C11.1443 10.4989 10.8741 10.8285 10.7601 11.404C10.7548 11.4305 10.7498 11.461 10.7451 11.4956C10.6973 11.842 10.4013 12.1 10.0516 12.1H10C9.62979 12.1 9.32968 11.7999 9.32968 11.4297C9.32968 11.4107 9.33048 11.3917 9.33212 11.3728C9.33793 11.3045 9.34425 11.2528 9.35105 11.2177C9.45933 10.6599 9.73403 10.1593 10.119 9.769L10.987 8.887C11.246 8.635 11.4 8.285 11.4 7.9C11.4 7.13 10.77 6.5 10 6.5C9.51072 6.5 9.07797 6.75437 8.82747 7.1374C8.78315 7.20516 8.74311 7.29596 8.70735 7.4098C8.6157 7.70152 8.34531 7.9 8.03953 7.9H7.9C7.56989 7.9 7.30228 7.63239 7.30228 7.30228C7.30228 7.25785 7.30724 7.21356 7.31707 7.17023C7.3594 6.98335 7.40744 6.8323 7.4612 6.71706C7.90685 5.7617 8.8758 5.1 10 5.1C11.547 5.1 12.8 6.353 12.8 7.9C12.8 8.516 12.548 9.076 12.149 9.475L11.519 10.119Z"  fill="#948AC5"></path></svg>